<?xml version="1.0" encoding="utf-8"?>
<svg version="1.1" id="Layer_1" xmlns="http://www.w3.org/2000/svg" x="0px" y="0px" viewBox="5.66 5.1 50 31">
  <g id="XMLID_5_">
    <path id="XMLID_7_" fill="#38383A"
          d="M25.876,31.275l-11.182-2.434c-1.019-0.233-1.786-1.127-1.831-2.206c-0.005-0.031-0.005-12.016,0-12.047c0.045-1.08,0.812-1.973,1.831-2.207l11.182-2.433l1.2-4.74H14.045c-4.57,0-8.277,3.694-8.295,8.26c0,0,0,14.283,0,14.283c0.018,4.566,3.725,8.263,8.295,8.263h13.031L25.876,31.275z"/>
    <path id="XMLID_6_" fill="#38383A"
          d="M35.392,31.275l11.181-2.434c1.02-0.233,1.786-1.127,1.831-2.206c0.005-0.031,0.005-12.016,0-12.047c-0.045-1.08-0.811-1.973-1.831-2.207L35.392,9.949l-1.2-4.74h13.031c4.57,0,8.278,3.694,8.294,8.26c0,0,0,14.283,0,14.283c-0.017,4.566-3.724,8.263-8.294,8.263H34.192L35.392,31.275z"/>
  </g>
  <rect id="XMLID_4_" x="25.876" y="20.019" fill="#38383A" width="9.516" height="1.186"/>
</svg>
