<?xml version="1.0" encoding="utf-8"?>
<svg version="1.1" id="Layer_1" xmlns="http://www.w3.org/2000/svg" x="0px" y="0px" viewBox="-0.02 0.4 34.12 24.68">
    <g id="chXMLID_19_">
        <path id="chXMLID_22_" fill="#00a3ff" class="chst1"
              d="M29.5 20.6c-.6.6-1.7 1.3-3.5 1.3H14.3c3.5-3.4 6.5-6.3 6.8-6.6.3-.3 1-1 1.6-1.5 1.3-1.2 2.5-1.4 3.4-1.4 1.3 0 2.5.6 3.4 1.4 1.9 1.9 1.9 4.9 0 6.8m2.3-9c-1.4-1.5-3.4-2.4-5.6-2.4-1.9 0-3.5.7-5 1.8-.6.5-1.3 1.1-2.1 1.9-.5.5-12.3 12-12.3 12 .6.1 1.4.1 2.2.1h14.9c1.1 0 1.9 0 2.7-.1 1.8-.1 3.6-.8 5-2.2 3.2-3 3.2-8 .2-11.1z"/>
        <path id="chXMLID_2_" fill="#00c8dc" class="chst2"
              d="M12.6 10.9c-1.4-1-3-1.6-4.7-1.6-2.2 0-4.2.9-5.6 2.4-3 3.1-3 8.1.1 11.2 1.3 1.2 2.8 1.9 4.4 2.1l3.1-3H8.1c-1.8-.1-2.9-.7-3.5-1.3a4.86 4.86 0 0 1-.1-6.8c.9-.9 2.1-1.4 3.4-1.4.8 0 2 .2 3.3 1.3.6.5 2 1.7 2.6 2.2h.1l2.1-2.1v-.1c-1.1-1-2.5-2.3-3.4-2.9"/>
        <path id="chXMLID_1_" fill="#006eff" class="chst3"
              d="M27 7.5c-1.5-4.1-5.4-7-10-7-5.3 0-9.6 3.9-10.4 8.9.4-.1.8-.2 1.3-.2.6 0 1.2.1 1.8.2.7-3.4 3.7-5.9 7.3-5.9 3 0 5.6 1.8 6.8 4.4 0 0 .1.1.1 0 .9-.2 2-.4 3-.3.1 0 .1-.1.1-.1"/>
    </g>
</svg>