<?xml version="1.0" encoding="utf-8"?>
<svg version="1.1" xmlns="http://www.w3.org/2000/svg" x="0px" y="0px" viewBox="9 341 449.6 303.6">
  <g>
    <path
      d="M452.1,368c14-30.8-3.8-19.2-3.8-19.2S386,450.6,232.7,450.6c-24.3,0-46.2-2.6-66-7c-8.6-28.7-20.3-50.7-37.9-54c0,0,0.8,17.9,2.3,43.5c-79-29.4-111.9-85.8-111.9-85.8s-13.5-16.8-7.7,8.7c4.4,19.3,37.6,95.7,123.2,131.4c3.7,48.3,9,99.9,15.8,117.3c14,35.6,31.3,39,83.7,39s80.8-4.3,88.5-34.6c7.7-30.3,15.9-99.1,14.9-102.5s0.4-11.8-14,0.5c-18.9,16.2-39.1,81.8-44.6,88c-5.8,6.7-47.5,16.5-71.4,7.4c-12.8-9.2-19.1-54.8-27.8-101.4c16.3,3.2,34.1,5,53.3,5C393.4,506.1,438.2,398.8,452.1,368z"/>
  </g>
</svg>