<?xml version="1.0" encoding="utf-8"?>
<svg version="1.1" xmlns="http://www.w3.org/2000/svg" x="0px" y="0px" viewBox="-0.06 0.2 37.39 37.44">
    <g fill="#00A0FF" transform="translate(-1)">
        <path
            d="M30.8,4.1 L30.8,4.1 L30.8,4.1 L30.8,4.1 L30.8,4.1 C30.1,3.6 29.4,3.1 28.6,2.7 C28.1,2.4 27.4,2.5 27,3 L22.3,9.2 L22,9.6 C21.5,10.3 20.7,10.6 19.9,10.6 L19,10.6 C16.7,10.7 14.4,11.9 12.9,13.9 C11.7,15.5 11.1,17.4 11.2,19.3 C11.2,19.6 11.4,19.9 11.7,20.1 C12.3,20.4 12.8,21 13,21.7 C13.2,22.8 12.5,23.8 11.5,24.1 C10.3,24.5 9,23.7 8.7,22.5 C8.5,21.8 8.7,21.2 9.1,20.7 C9.3,20.4 9.4,20.1 9.4,19.7 C9.2,17.3 9.8,14.8 11.4,12.7 C13.4,10.1 16.4,8.7 19.5,8.7 C20.1,8.7 20.6,8.4 21,7.9 L25.3,2.2 C25.6,1.8 25.4,1.1 24.9,1 C17.7,-1 9.7,1.4 4.8,7.7 C-1.4,15.8 0.1,27.5 8.2,33.8 C9,34.4 9.7,34.9 10.6,35.4 C11.1,35.7 11.8,35.6 12.2,35.1 L16.9,28.9 L17.2,28.5 C17.7,27.8 18.5,27.5 19.3,27.5 L20.2,27.5 C22.5,27.4 24.8,26.2 26.3,24.2 C27.5,22.6 28.1,20.7 28,18.8 C28,18.5 27.8,18.2 27.5,18 C26.9,17.7 26.4,17.1 26.2,16.4 C26,15.3 26.7,14.3 27.7,14 C28.9,13.6 30.2,14.4 30.5,15.6 C30.7,16.3 30.5,16.9 30.1,17.4 C29.9,17.7 29.8,18 29.8,18.4 C30,20.8 29.4,23.3 27.8,25.4 C25.8,28 22.8,29.4 19.7,29.4 C19.1,29.4 18.6,29.7 18.2,30.2 L14,35.6 C13.7,36 13.9,36.7 14.4,36.8 C21.6,38.9 29.7,36.5 34.5,30.1 C40.7,22 39,10.3 30.8,4.1 Z"/>
    </g>
</svg>
